<?xml version="1.0" encoding="utf-8"?>
<!-- Generator: Adobe Illustrator 22.1.0, SVG Export Plug-In . SVG Version: 6.00 Build 0)  -->
<svg version="1.1" xmlns="http://www.w3.org/2000/svg" xmlns:xlink="http://www.w3.org/1999/xlink" x="0px" y="0px"
	 viewBox="0 0 1400 1000" style="enable-background:new 0 0 1400 1000;" xml:space="preserve">
<style type="text/css">
	.st0{fill:#EEFFF8;}
	.st1{fill:#EFCB73;}
	.st2{fill:#ABF4DC;}
	.st3{opacity:0.17;fill:#008395;}
	.st4{fill:#FFFFFF;}
	.st5{fill:#11D1BE;}
	.st6{fill:#FFE8A3;}
	.st7{opacity:0.37;fill:#EFCB73;}
	.st8{fill:#16DAEF;}
	.st9{fill:#D62A1D;}
	.st10{fill:#AA5C0E;}
	.st11{fill:#F55342;}
	.st12{fill:#FCC281;}
	.st13{fill:#7F3F05;}
	.st14{fill:#FCD0A4;}
	.st15{fill:#F4AA5B;}
	.st16{fill:#EDA248;}
	.st17{opacity:0.3;fill:#AA5C0E;}
	.st18{opacity:0.24;fill:#7F3F05;}
	.st19{opacity:7.000000e-02;fill:#4F4E4D;}
	.st20{fill:#F9B569;}
	.st21{fill:#D37A1A;}
	.st22{fill:#D82E21;}
	.st23{fill:#FFED43;}
	.st24{fill:#FFD342;}
</style>
<g id="BG">
	<rect class="st0" width="1400" height="1000"/>
</g>
<g id="OBJECT">
	<ellipse class="st1" cx="968.1" cy="798.5" rx="3.5" ry="1.5"/>
	<g>
		<g>
			<path class="st2" d="M249.9,322.9h-32.3c-8.9,0-16,7.2-16,16v0c0,8.9,7.2,16,16,16h32.3c8.9,0,16-7.2,16-16v0
				C265.9,330.1,258.7,322.9,249.9,322.9z"/>
			<path class="st2" d="M300.6,252.9h-18.1c-8.9,0-16,7.2-16,16v0c0,8.9,7.2,16,16,16h18.1c8.9,0,16-7.2,16-16v0
				C316.6,260.1,309.5,252.9,300.6,252.9z"/>
			<path class="st2" d="M1121.4,291.5h-18.1c-8.9,0-16,7.2-16,16v0c0,8.9,7.2,16,16,16h18.1c8.9,0,16-7.2,16-16v0
				C1137.4,298.7,1130.3,291.5,1121.4,291.5z"/>
			<path class="st2" d="M1244.8,499.8h-18.1c-8.9,0-16,7.2-16,16v0c0,8.9,7.2,16,16,16h18.1c8.9,0,16-7.2,16-16v0
				C1260.9,507,1253.7,499.8,1244.8,499.8z"/>
			<path class="st2" d="M205.4,628.3h-18.1c-8.9,0-16,7.2-16,16v0c0,8.9,7.2,16,16,16h18.1c8.9,0,16-7.2,16-16v0
				C221.4,635.5,214.2,628.3,205.4,628.3z"/>
			<g>
				<path class="st2" d="M1215.4,636.1h-191.6c-4.9,0-9.4-2-12.6-5.3c-3.3-3.3-5.3-7.8-5.3-12.9c0.1-9.9,8.5-17.7,18.4-17.7h112.9
					c1.5-0.8,2.9-1.9,4.1-3.1c3.3-3.2,5.3-7.7,5.3-12.6c0-6.7-3.8-12.6-9.3-15.7l-38.2,0c-10,0-18.5-8.2-18.4-18.2
					c0.1-9.7,8.1-17.7,17.9-17.7h87.8c1.1-0.7,2-1.5,2.9-2.4c3.3-3.2,5.3-7.7,5.3-12.6c0-8-5.3-14.8-12.5-17.1H919.8
					c-10,0-18.5-8.2-18.4-18.2c0.1-9.7,8.1-17.7,17.9-17.7h274.6c20.3,0,34.8-19.8,28.6-39.1c-5.5-17.2-11.9-34-19.2-50.3
					c-6.5-14.8-21.1-24.3-37.3-24.3h-141.4c-8.9,0-16.1-7.9-15-17c0.9-7.7,7.7-13.3,15.4-13.3h39.7c2.2-0.8,4.1-2,5.7-3.6
					c2.7-2.7,4.5-6.5,4.5-10.7c0-6.9-4.7-12.8-11.1-14.6h-39.2c-4.2,0-8-1.7-10.7-4.4c-2.7-2.7-4.4-6.5-4.4-10.7
					c0-8.3,6.8-15.1,15.1-15.1h31.6c31.1,0,46.1-38.2,23.3-59.4C981.4,111.5,848.1,55.5,701.2,55.5c-102.8,0-198.9,27.4-280.9,75.1
					c-42.3,24.6-24.8,89.3,24.1,89.3h7.2c4.9,0,9.4,2,12.7,5.3c3.3,3.3,5.3,7.8,5.3,12.8c-0.1,9.9-8.5,17.7-18.4,17.7H338.1
					c-1.5,0.8-2.9,1.9-4.1,3.1c-3.3,3.2-5.3,7.7-5.3,12.6c0,6.7,3.8,12.6,9.3,15.7h38.7c9.8,0,17.8,7.9,17.9,17.7
					c0.1,10-8.4,18.1-18.4,18.1H289c-1.1,0.7-2,1.5-2.9,2.4c-3.3,3.2-5.3,7.7-5.3,12.6c0,8,5.3,14.8,12.5,17.1h262.3
					c10,0,18.5,8.2,18.4,18.2c-0.1,9.7-8.1,17.7-17.9,17.7H216.8c-14.8,0-27.9,9.4-32.8,23.3c-3.5,9.9-6.6,19.9-9.5,30.1
					c-3.5,12.6,5.9,25,18.9,25h59.8c9.9,0,17.9,8.1,17.9,17.9c0,4.9-2,9.4-5.3,12.7c-3.3,3.2-7.7,5.3-12.7,5.3h-69.7
					c-12.9,0-23.7,9.8-25.1,22.6c-1.9,18-2.9,36.3-2.9,54.8v0.2c0,8.3,6.8,15,15.1,15h149.4c4.3,0,8.2,1.8,11.1,4.6
					c3.1,3.1,4.9,7.5,4.6,12.2c-0.6,8.2-7.8,14.5-16.1,14.5h-69.1c-3.8,0.3-7.3,2-9.9,4.5c-2.8,2.8-4.6,6.7-4.6,11.1
					c0,7.6,5.5,14,12.7,15.4h27.8c4.8,0,9.1,2.2,12,5.6c2.3,2.7,3.7,6.2,3.7,10.1c0,8.6-7.1,15.7-15.7,15.7h-61.5
					c-7,0-13.5,1.9-19,5.3c-13.8,8.3-21.4,25.3-16.1,42.1c0,0.1,0.1,0.3,0.1,0.4c0.2,0.6,0.4,1.3,0.6,1.9c0.1,0.3,0.2,0.6,0.3,0.9
					c17.7,53.8,44.1,103.9,77.5,148.7H1144c33.5-44.8,59.9-94.9,77.5-148.7c0.1-0.3,0.2-0.5,0.3-0.8l3.4-10.9
					c0.1-0.3,0.2-0.5,0.2-0.8c0.4-1.5,0.9-2.9,1.3-4.4c0.1-0.4,0.2-0.8,0.3-1.1c0.1-0.2,0.1-0.5,0.2-0.8c0.3-1,0.6-2,0.9-3l1.7-6.4
					c0.5-1.9,1-3.8,1.5-5.7s0.9-3.8,1.4-5.7c0.5-1.9,0.9-3.8,1.3-5.7c0.3-1.3,0.6-2.6,0.9-3.8c0.3-1.3,0.6-2.6,0.8-3.8
					c0.3-1.3,0.5-2.6,0.8-3.8c0.3-1.3,0.5-2.6,0.8-3.9c0.2-1,0.4-2,0.6-3c0.2-1.1,0.4-2.1,0.6-3.2c0-0.1,0-0.2,0.1-0.3
					c0.2-1.1,0.4-2.1,0.6-3.2c0.1-0.3,0.1-0.7,0.2-1c0.3-1.6,0.6-3.3,0.8-4.9l0-0.3C1242.7,650,1230.9,636.1,1215.4,636.1z
					 M535.4,255.7h-26.9c-9.9,0-17.9-8-17.9-17.9c0-4.9,2-9.4,5.2-12.7c3.2-3.2,7.7-5.2,12.7-5.2h26.9c9.9,0,17.9,8.1,17.9,17.9
					C553.3,247.6,545.2,255.7,535.4,255.7z M598.5,255.7h-0.6c-9.9,0-17.9-8-17.9-17.9c0-4.9,2-9.4,5.2-12.7
					c3.2-3.2,7.7-5.2,12.7-5.2h0.6c9.9,0,17.9,8.1,17.9,17.9C616.4,247.6,608.4,255.7,598.5,255.7z"/>
				<path class="st3" d="M1240.2,665.6c-0.3,1.6-0.5,3.3-0.8,4.9c-0.1,0.3-0.1,0.7-0.2,1c-0.2,1.1-0.4,2.1-0.6,3.2
					c0,0.1,0,0.2-0.1,0.3c-0.2,1.1-0.4,2.1-0.6,3.2c-0.2,1-0.4,2-0.6,3c-0.2,1.3-0.5,2.6-0.8,3.9c-0.3,1.3-0.5,2.6-0.8,3.8
					c-0.3,1.3-0.5,2.6-0.8,3.8c-0.3,1.3-0.6,2.6-0.9,3.8c-0.4,1.9-0.9,3.8-1.3,5.7c-0.5,1.9-0.9,3.8-1.4,5.7s-1,3.8-1.5,5.7
					l-1.7,6.4c-0.3,1-0.6,2-0.9,3c-0.1,0.3-0.1,0.5-0.2,0.8c-0.1,0.4-0.2,0.8-0.3,1.1c-0.4,1.5-0.9,2.9-1.3,4.4
					c-0.1,0.2-0.2,0.5-0.2,0.8l-3.4,10.9c-0.1,0.3-0.2,0.5-0.3,0.8c-17.7,53.8-44,104-77.5,148.7H258.5
					c-33.5-44.8-59.9-94.9-77.5-148.7c-0.1-0.3-0.2-0.6-0.3-0.9c-0.2-0.6-0.4-1.3-0.6-1.9c0-0.1-0.1-0.3-0.1-0.4
					c-5.2-16.8,2.4-33.8,16.1-42.1c5.5-3.3,12-5.3,19-5.3h61.5c8.6,0,15.7-7,15.7-15.7c0-3.8-1.4-7.3-3.7-10.1H1240.2z"/>
				<path class="st3" d="M1240.2,665.6c-0.3,1.6-0.5,3.3-0.8,4.9c-0.1,0.3-0.1,0.7-0.2,1c-0.2,1.1-0.4,2.1-0.6,3.2
					c0,0.1,0,0.2-0.1,0.3c-0.2,1.1-0.4,2.1-0.6,3.2c-0.2,1-0.4,2-0.6,3c-0.2,1.3-0.5,2.6-0.8,3.9c-0.3,1.3-0.5,2.6-0.8,3.8
					c-0.3,1.3-0.5,2.6-0.8,3.8c-0.3,1.3-0.6,2.6-0.9,3.8c-0.4,1.9-0.9,3.8-1.3,5.7c-0.5,1.9-0.9,3.8-1.4,5.7s-1,3.8-1.5,5.7
					l-1.7,6.4c-0.5,1.6-0.9,3.3-1.4,4.9c-0.5,1.7-1,3.4-1.5,5.1l-3.4,10.9c-0.1,0.3-0.2,0.5-0.2,0.8H181c-0.1-0.3-0.2-0.6-0.3-0.9
					c-0.2-0.8-0.5-1.5-0.7-2.3c-5.2-16.8,2.4-33.8,16.1-42.1c5.5-3.3,12-5.3,19-5.3h61.5c8.6,0,15.7-7,15.7-15.7
					c0-3.8-1.4-7.3-3.7-10.1H1240.2z"/>
				<path class="st3" d="M1240.2,665.6c-0.3,1.6-0.5,3.3-0.8,4.9c-0.3,1.5-0.5,3-0.8,4.5c-0.2,1.1-0.4,2.1-0.6,3.2
					c-0.2,1-0.4,2-0.6,3c-0.2,1.3-0.5,2.6-0.8,3.9c-0.5,2.6-1.1,5.1-1.6,7.7c-0.3,1.3-0.6,2.6-0.9,3.8h-1038c5.5-3.3,12-5.3,19-5.3
					h61.5c8.6,0,15.7-7,15.7-15.7c0-3.8-1.4-7.3-3.7-10.1H1240.2z"/>
			</g>
			<path class="st4" d="M359.9,625.5h0.5c8.1,0,14.8-6.7,14.8-14.8v0c0-8.1-6.7-14.8-14.8-14.8h-0.5c-8.2,0-14.8,6.6-14.8,14.8v0
				C345.1,618.8,351.7,625.5,359.9,625.5z"/>
		</g>
		<g>
			<g>
				<g>
					<path class="st5" d="M357.1,516.3c50.1-4.2,101.4,16.1,101.4,16.1c-59.7-57.9-96.6-60.5-118.8-47.6
						c34.2-29.7,82.8-43.3,82.8-43.3c-69.9-31.4-97.7-4.8-108.3,27.4c-10.6-32.2-38.3-58.9-108.3-27.4c0,0,48.6,13.6,82.8,43.3
						c-22.2-12.9-59.1-10.3-118.8,47.6c0,0,51.3-20.3,101.4-16.1c-35.5,13.8-35.4,95.5-35.4,95.5c13.9-28.1,48.4-56.1,68.5-70.8
						l-13.4,341.2h53.3L324,541c20.1,14.7,54.6,42.8,68.5,70.8C392.5,611.8,392.7,530.1,357.1,516.3z"/>
				</g>
				<g>
					<path class="st5" d="M1095.6,488.1c52.6-4.4,106.3,16.8,106.3,16.8c-62.6-60.7-101.2-63.4-124.6-49.9
						c35.8-31.1,86.8-45.4,86.8-45.4c-73.3-33-102.4-5-113.5,28.8c-11.1-33.7-40.2-61.7-113.5-28.8c0,0,50.9,14.3,86.8,45.4
						c-23.3-13.5-62-10.8-124.6,49.9c0,0,53.7-21.3,106.3-16.8c-37.3,14.5-37.2,100.2-37.2,100.2c14.6-29.4,50.8-58.8,71.9-74.3
						l-14,357.7h55.9L1060.9,514c21.1,15.5,57.3,44.9,71.9,74.3C1132.7,588.3,1132.8,502.6,1095.6,488.1z"/>
				</g>
				<g>
					<path class="st5" d="M519.9,635.6c39.5-3.3,80,12.7,80,12.7c-47-45.7-76.1-47.7-93.7-37.5c27-23.4,65.3-34.1,65.3-34.1
						c-55.1-24.8-77-3.7-85.4,21.6c-8.4-25.4-30.2-46.4-85.4-21.6c0,0,38.3,10.7,65.3,34.1c-17.5-10.2-46.6-8.2-93.7,37.5
						c0,0,40.4-16,80-12.7c-28,10.9-27.9,75.3-27.9,75.3c11-22.1,38.2-44.2,54-55.9l-10.6,269h42l-16-269
						c15.9,11.6,43.1,33.7,54,55.9C547.9,710.9,547.9,646.5,519.9,635.6z"/>
				</g>
			</g>
			<g>
				<g>
					<ellipse class="st6" cx="721.5" cy="890.8" rx="515.5" ry="49"/>
					<path class="st7" d="M721.5,841.8c-22.8,0-45.2,0.1-67.2,0.4c251,2.9,444.3,21.1,444.3,43.2c0,24.1-230.8,43.6-515.5,43.6
						c-87,0-168.9-1.8-240.8-5c94.2,9.7,229.2,15.8,379.2,15.8c284.7,0,515.5-21.9,515.5-49C1237,863.7,1006.2,841.8,721.5,841.8z"
						/>
					<g>
						<ellipse class="st1" cx="371.1" cy="881.7" rx="5.8" ry="2.9"/>
						<ellipse class="st1" cx="286.5" cy="873.5" rx="7.3" ry="2.3"/>
						<ellipse class="st1" cx="727.7" cy="892.2" rx="284.4" ry="8.9"/>
						<ellipse class="st1" cx="441.7" cy="906.1" rx="48.3" ry="5.4"/>
						<ellipse class="st1" cx="540" cy="913.4" rx="5" ry="1.9"/>
						<ellipse class="st1" cx="572.3" cy="863.8" rx="5.3" ry="1.9"/>
						<ellipse class="st1" cx="727.4" cy="867.2" rx="6.6" ry="4.1"/>
						<ellipse class="st1" cx="701.7" cy="915.6" rx="5.3" ry="3.5"/>
						<ellipse class="st1" cx="839.5" cy="856.9" rx="4.4" ry="3.1"/>
						<ellipse class="st1" cx="840.4" cy="913.4" rx="4.7" ry="3.8"/>
						<ellipse class="st1" cx="672.2" cy="857.5" rx="2.8" ry="1.3"/>
						<ellipse class="st1" cx="595.9" cy="916.5" rx="3.1" ry="1.9"/>
						<ellipse class="st1" cx="509.9" cy="864.4" rx="3.1" ry="1.9"/>
						<ellipse class="st1" cx="389.3" cy="884.2" rx="2.5" ry="1.6"/>
						<ellipse class="st1" cx="328.9" cy="891" rx="4.9" ry="3.5"/>
					</g>
				</g>
				<g>
					<g>
						<polygon class="st8" points="658,321.1 566.3,321.1 566.3,419.3 658,419.3 637,373.1 						"/>
						<polygon class="st9" points="597.7,392.9 566.5,419.2 566.5,375.3 						"/>
						<path class="st10" d="M501.9,290.2L501.9,290.2c-2.1,0-3.9,1.7-3.9,3.9v373.3h7.8V294.1C505.8,292,504,290.2,501.9,290.2z"/>
						<rect x="505.9" y="294.6" class="st11" width="91.8" height="98.2"/>
					</g>
					<g>
						<polygon class="st12" points="947.5,479.5 650.5,479.5 683.1,664.1 947.5,664.1 						"/>
						<rect x="703.2" y="530.3" class="st10" width="82.9" height="135.6"/>
						<rect x="767.3" y="530.3" class="st13" width="18.8" height="135.6"/>
						<rect x="606.2" y="449.3" class="st12" width="369.2" height="30.1"/>
						<rect x="606.2" y="449.3" class="st14" width="34.8" height="30.1"/>
						<rect x="847" y="449.3" class="st15" width="128.4" height="30.1"/>
						<rect x="882.2" y="479.5" class="st15" width="65.3" height="184.6"/>
						<rect x="919.9" y="479.5" class="st16" width="27.6" height="184.6"/>
						<polygon class="st17" points="947.5,499.1 947.5,479.5 650.5,479.5 654,499.1 						"/>
						<rect x="912.3" y="449.3" class="st16" width="63.1" height="30.1"/>
						<g>
							<path class="st18" d="M932.8,472.1c-2.3-2.5-4.9-4.7-7.9-6.6c-3-1.9-6.1-3.4-9.2-4.5c-15-5.2-31.7-1.6-43.2,9.2
								c-2.5,2.3-4.7,4.9-6.6,7.9c-1.9,3-3.4,6.1-4.5,9.2c-5.2,15-1.6,31.7,9.2,43.2c2.3,2.5,4.9,4.7,7.9,6.6c3,1.9,6.1,3.4,9.2,4.5
								c15,5.2,31.7,1.6,43.2-9.2c2.5-2.3,4.7-4.9,6.6-7.9c1.9-3,3.4-6.1,4.5-9.2C947.2,500.4,943.6,483.6,932.8,472.1z
								 M924.2,503.8c-0.4,3.4-1.5,6.8-3.5,9.9c-2,3.1-4.6,5.5-7.6,7.3c-4.2,2.4-9.1,3.5-13.9,3c-3.4-0.4-6.8-1.5-9.9-3.5
								c-3.1-2-5.5-4.6-7.3-7.6c-2.4-4.2-3.5-9.1-3-13.9c0.4-3.4,1.5-6.8,3.5-9.9c2-3.1,4.6-5.5,7.6-7.3c4.2-2.4,9.1-3.5,13.9-3
								c3.4,0.4,6.8,1.5,9.9,3.5c3.1,2,5.5,4.6,7.3,7.6C923.7,494.1,924.7,499,924.2,503.8z"/>
							<g>
								<path class="st4" d="M935.7,512c5.2-15,1.6-31.7-9.2-43.2c-2.3-2.5-4.9-4.7-7.9-6.6c-3-1.9-6.1-3.4-9.2-4.5
									c-15-5.2-31.7-1.6-43.2,9.2c-2.5,2.3-4.7,4.9-6.6,7.9c-1.9,3-3.4,6.1-4.5,9.2c-5.2,15-1.6,31.7,9.2,43.2
									c2.3,2.5,4.9,4.7,7.9,6.6c3,1.9,6.1,3.4,9.2,4.5c15,5.2,31.7,1.6,43.2-9.2c2.5-2.3,4.7-4.9,6.6-7.9
									C933.1,518.3,934.6,515.2,935.7,512z M892.9,520.5c-3.4-0.4-6.8-1.5-9.9-3.5c-3.1-2-5.5-4.6-7.3-7.6
									c-2.4-4.2-3.5-9.1-3-13.9c0.4-3.4,1.5-6.8,3.5-9.9c2-3.1,4.6-5.5,7.6-7.3c4.2-2.4,9.1-3.5,13.9-3c3.4,0.4,6.8,1.5,9.9,3.5
									c3.1,2,5.5,4.6,7.3,7.6c2.4,4.2,3.5,9.1,3,13.9c-0.4,3.4-1.5,6.8-3.5,9.9c-2,3.1-4.6,5.5-7.6,7.3
									C902.6,520,897.7,521,892.9,520.5z"/>
								<path class="st11" d="M926.5,468.7L915,486.5c-1.7-3-4.2-5.6-7.3-7.6c-3.1-2-6.5-3.2-9.9-3.5l11.6-17.8
									c3.2,1.1,6.3,2.6,9.2,4.5C921.6,464.1,924.2,466.3,926.5,468.7z"/>
								<path class="st11" d="M892.9,520.5l-11.6,17.8c-3.2-1.1-6.3-2.6-9.2-4.5c-3-1.9-5.6-4.1-7.9-6.6l11.6-17.8
									c1.7,3,4.2,5.6,7.3,7.6C886.1,519,889.5,520.2,892.9,520.5z"/>
								<path class="st11" d="M883.9,478.4c-3,1.7-5.6,4.2-7.6,7.3c-2,3.1-3.2,6.5-3.5,9.9L855,484c1.1-3.2,2.6-6.3,4.5-9.2
									c1.9-3,4.1-5.6,6.6-7.9L883.9,478.4z"/>
								<path class="st11" d="M931.2,521.2c-1.9,3-4.1,5.6-6.6,7.9l-17.8-11.6c3-1.7,5.6-4.2,7.6-7.3c2-3.1,3.2-6.5,3.5-9.9
									l17.8,11.6C934.6,515.2,933.1,518.3,931.2,521.2z"/>
								<path class="st19" d="M935.7,512c5.2-15,1.6-31.7-9.2-43.2c-2.3-2.5-4.9-4.7-7.9-6.6c-3-1.9-6.1-3.4-9.2-4.5
									c-15-5.2-31.7-1.6-43.2,9.2c-2.5,2.3-4.7,4.9-6.6,7.9c-1.9,3-3.4,6.1-4.5,9.2c-5.2,15-1.6,31.7,9.2,43.2
									c2.3,2.5,4.9,4.7,7.9,6.6c3,1.9,6.1,3.4,9.2,4.5c15,5.2,31.7,1.6,43.2-9.2c2.5-2.3,4.7-4.9,6.6-7.9
									C933.1,518.3,934.6,515.2,935.7,512z M921.3,525.6c-10.2,9.6-25.1,12.8-38.4,8.2c-2.8-1-5.6-2.3-8.2-4c-2.6-1.7-5-3.7-7-5.9
									c-9.6-10.2-12.8-25.1-8.2-38.4c1-2.8,2.3-5.6,4-8.2c1.7-2.6,3.7-5,5.9-7c10.2-9.6,25.1-12.8,38.4-8.2c2.8,1,5.6,2.3,8.2,4
									c2.6,1.7,5,3.7,7,5.9c9.6,10.2,12.8,25.1,8.2,38.4c-1,2.8-2.3,5.6-4,8.2C925.5,521.2,923.5,523.6,921.3,525.6z"/>
							</g>
						</g>
					</g>
					<g>
						
							<rect x="697.2" y="410.8" transform="matrix(-1.836970e-16 1 -1 -1.836970e-16 1401.814 -33.6005)" class="st16" width="41" height="546.6"/>
						<rect x="444.4" y="663.6" class="st20" width="3.2" height="41"/>
						
							<rect x="711.3" y="425" transform="matrix(-1.836970e-16 1 -1 -1.836970e-16 1415.9329 -19.4815)" class="st21" width="12.8" height="546.6"/>
					</g>
					<g>
						<g>
							
								<rect x="707.5" y="302.4" transform="matrix(-1.836970e-16 1 -1 -1.836970e-16 1293.425 -141.9893)" class="st16" width="20.5" height="546.6"/>
							<rect x="444.4" y="565.5" class="st20" width="3.2" height="20.5"/>
							
								<rect x="714.5" y="309.5" transform="matrix(-1.836970e-16 1 -1 -1.836970e-16 1300.4817 -134.9327)" class="st21" width="6.4" height="546.6"/>
						</g>
						<g>
							<g>
								<g>
									<rect x="556.2" y="586.1" class="st16" width="15.6" height="78.1"/>
									<rect x="564.6" y="586.1" class="st21" width="7.2" height="78.1"/>
									<polygon class="st20" points="557,586.1 556.2,586.1 556.2,664.2 557,664.2 557.8,664.2 557.8,586.1 									"/>
									<rect x="556.2" y="586.1" class="st21" width="15.6" height="7.1"/>
								</g>
								<g>
									<rect x="454.4" y="586.1" class="st16" width="15.6" height="78.1"/>
									<rect x="462.9" y="586.1" class="st21" width="7.2" height="78.1"/>
									<polygon class="st20" points="455.3,586.1 454.4,586.1 454.4,664.2 455.3,664.2 456,664.2 456,586.1 									"/>
									<rect x="454.4" y="586.1" class="st21" width="15.6" height="7.1"/>
								</g>
								<g>
									<g>
										<polygon class="st16" points="469.8,611.3 469.8,597.6 556.2,645.4 556.2,659.1 										"/>
										<polygon class="st21" points="469.8,611.3 469.8,605 556.2,652.8 556.2,659.1 										"/>
									</g>
									<g>
										<polygon class="st16" points="556.2,611.3 556.2,597.6 469.8,645.4 469.8,659.1 										"/>
										<polygon class="st21" points="529.2,630.5 516.9,637.3 513,635.2 525.3,628.4 										"/>
										<polygon class="st21" points="556.2,611.3 556.2,605 469.8,652.8 469.8,659.1 										"/>
									</g>
								</g>
							</g>
							<g>
								<g>
									<rect x="658.4" y="586.1" class="st16" width="15.6" height="78.1"/>
									<rect x="666.8" y="586.1" class="st21" width="7.2" height="78.1"/>
									<polygon class="st20" points="659.2,586.1 658.4,586.1 658.4,664.2 659.2,664.2 660,664.2 660,586.1 									"/>
									<rect x="658.4" y="586.1" class="st21" width="15.6" height="7.1"/>
								</g>
								<g>
									<g>
										<polygon class="st16" points="571.9,611.3 571.9,597.6 658.4,645.4 658.4,659.1 										"/>
										<polygon class="st21" points="571.9,611.3 571.9,605 658.4,652.8 658.4,659.1 										"/>
									</g>
									<g>
										<polygon class="st16" points="658.4,611.3 658.4,597.6 571.9,645.4 571.9,659.1 										"/>
										<polygon class="st21" points="631.4,630.5 619.1,637.3 615.2,635.2 627.5,628.4 										"/>
										<polygon class="st21" points="658.4,611.3 658.4,605 571.9,652.8 571.9,659.1 										"/>
									</g>
								</g>
							</g>
							<g>
								<g>
									<rect x="760.1" y="586.1" class="st16" width="15.6" height="78.1"/>
									<rect x="768.6" y="586.1" class="st21" width="7.2" height="78.1"/>
									<polygon class="st20" points="761,586.1 760.1,586.1 760.1,664.2 761,664.2 761.7,664.2 761.7,586.1 									"/>
									<rect x="760.1" y="586.1" class="st21" width="15.6" height="7.1"/>
								</g>
								<g>
									<g>
										<polygon class="st16" points="673.7,611.3 673.7,597.6 760.2,645.4 760.2,659.1 										"/>
										<polygon class="st21" points="673.7,611.3 673.7,605 760.2,652.8 760.2,659.1 										"/>
									</g>
									<g>
										<polygon class="st16" points="760.2,611.3 760.2,597.6 673.7,645.4 673.7,659.1 										"/>
										<polygon class="st21" points="733.2,630.5 720.9,637.3 716.9,635.2 729.3,628.4 										"/>
										<polygon class="st21" points="760.2,611.3 760.2,605 673.7,652.8 673.7,659.1 										"/>
									</g>
								</g>
							</g>
							<g>
								<g>
									<rect x="862.5" y="586.1" class="st16" width="15.6" height="78.1"/>
									<rect x="870.9" y="586.1" class="st21" width="7.2" height="78.1"/>
									<polygon class="st20" points="863.4,586.1 862.5,586.1 862.5,664.2 863.4,664.2 864.1,664.2 864.1,586.1 									"/>
									<rect x="862.5" y="586.1" class="st21" width="15.6" height="7.1"/>
								</g>
								<g>
									<g>
										<polygon class="st16" points="776.1,611.3 776.1,597.6 862.5,645.4 862.5,659.1 										"/>
										<polygon class="st21" points="776.1,611.3 776.1,605 862.5,652.8 862.5,659.1 										"/>
									</g>
									<g>
										<polygon class="st16" points="862.5,611.3 862.5,597.6 776.1,645.4 776.1,659.1 										"/>
										<polygon class="st21" points="835.5,630.5 823.2,637.3 819.3,635.2 831.6,628.4 										"/>
										<polygon class="st21" points="862.5,611.3 862.5,605 776.1,652.8 776.1,659.1 										"/>
									</g>
								</g>
							</g>
							<g>
								<g>
									<rect x="964.9" y="586.1" class="st16" width="15.6" height="78.1"/>
									<rect x="973.4" y="586.1" class="st21" width="7.2" height="78.1"/>
									<polygon class="st20" points="965.8,586.1 964.9,586.1 964.9,664.2 965.8,664.2 966.5,664.2 966.5,586.1 									"/>
									<rect x="964.9" y="586.1" class="st21" width="15.6" height="7.1"/>
								</g>
								<g>
									<g>
										<polygon class="st16" points="878.5,611.3 878.5,597.6 965,645.4 965,659.1 										"/>
										<polygon class="st21" points="878.5,611.3 878.5,605 965,652.8 965,659.1 										"/>
									</g>
									<g>
										<polygon class="st16" points="965,611.3 965,597.6 878.5,645.4 878.5,659.1 										"/>
										<polygon class="st21" points="938,630.5 925.7,637.3 921.7,635.2 934.1,628.4 										"/>
										<polygon class="st21" points="965,611.3 965,605 878.5,652.8 878.5,659.1 										"/>
									</g>
								</g>
							</g>
						</g>
					</g>
					<g>
						<ellipse class="st1" cx="928.5" cy="790.3" rx="4.7" ry="3.2"/>
						<rect x="490.2" y="731.3" class="st16" width="127" height="27.9"/>
						<rect x="490.2" y="731.3" class="st21" width="127" height="12.8"/>
						<rect x="490.2" y="756.3" class="st20" width="127" height="2.8"/>
						<rect x="611.7" y="731.3" class="st20" width="5.5" height="27.8"/>
						<g>
							<rect x="462.1" y="695.8" class="st16" width="27.9" height="198.8"/>
							<rect x="477.1" y="695.8" class="st21" width="12.8" height="198.8"/>
							<polygon class="st20" points="463.6,695.8 462.1,695.8 462.1,894.6 463.6,894.6 464.9,894.6 464.9,695.8 							"/>
							<rect x="462.1" y="695.8" class="st21" width="27.9" height="18.1"/>
						</g>
						<rect x="609.1" y="731.3" class="st21" width="8.2" height="27.8"/>
						<g>
							<rect x="638.9" y="762.7" class="st16" width="157.1" height="27.9"/>
							<rect x="638.9" y="762.7" class="st21" width="157.1" height="12.8"/>
							<rect x="638.9" y="787.7" class="st20" width="157.1" height="2.8"/>
							<rect x="638.9" y="762.7" class="st21" width="10.7" height="27.8"/>
						</g>
						<g>
							
								<rect x="629.2" y="674" transform="matrix(6.123234e-17 -1 1 6.123234e-17 -183.7593 1470.004)" class="st16" width="27.9" height="305.8"/>
							
								<rect x="636.7" y="666.5" transform="matrix(6.123234e-17 -1 1 6.123234e-17 -176.2333 1462.478)" class="st21" width="12.8" height="305.8"/>
							<polygon class="st20" points="490.2,839.3 490.2,840.8 796,840.8 796,839.3 796,838 490.2,838 							"/>
						</g>
						<rect x="609.1" y="813" class="st21" width="40.5" height="27.8"/>
						<g>
							<rect x="768.9" y="695.8" class="st16" width="27.9" height="198.8"/>
							<rect x="783.9" y="695.8" class="st21" width="12.8" height="198.8"/>
							<polygon class="st20" points="770.4,695.8 768.9,695.8 768.9,894.6 770.4,894.6 771.7,894.6 771.7,695.8 							"/>
							<rect x="768.9" y="695.8" class="st21" width="27.9" height="18.1"/>
						</g>
						<g>
							<rect x="858.4" y="695.8" class="st16" width="23.5" height="198.8"/>
							<rect x="871.1" y="695.8" class="st21" width="10.8" height="198.8"/>
							<polygon class="st20" points="859.7,695.8 858.4,695.8 858.4,894.6 859.7,894.6 860.8,894.6 860.8,695.8 							"/>
							<rect x="858.4" y="695.8" class="st21" width="23.5" height="18.1"/>
						</g>
						<g>
							<rect x="948.2" y="695.8" class="st16" width="23.5" height="198.8"/>
							<rect x="960.9" y="695.8" class="st21" width="10.8" height="198.8"/>
							<polygon class="st20" points="949.5,695.8 948.2,695.8 948.2,894.6 949.5,894.6 950.6,894.6 950.6,695.8 							"/>
							<rect x="948.2" y="695.8" class="st21" width="23.5" height="18.1"/>
						</g>
						<g>
							<g>
								
									<rect x="907.4" y="698.6" transform="matrix(-1.836970e-16 1 -1 -1.836970e-16 1646.6136 -183.4736)" class="st16" width="15.3" height="66"/>
								
									<rect x="911.5" y="702.7" transform="matrix(-1.836970e-16 1 -1 -1.836970e-16 1650.7538 -179.3335)" class="st21" width="7" height="66"/>
							</g>
							<g>
								<rect x="882.1" y="756.8" class="st16" width="66" height="15.3"/>
								<rect x="882.1" y="765.1" class="st21" width="66" height="7"/>
							</g>
							<g>
								<rect x="882.1" y="789.7" class="st16" width="66" height="15.3"/>
								<rect x="882.1" y="798" class="st21" width="66" height="7"/>
							</g>
							<g>
								<rect x="882.1" y="822.7" class="st16" width="66" height="15.3"/>
								<rect x="882.1" y="830.9" class="st21" width="66" height="7"/>
							</g>
							<g>
								
									<rect x="907.4" y="830.2" transform="matrix(-1.836970e-16 1 -1 -1.836970e-16 1778.2816 -51.8056)" class="st16" width="15.3" height="66"/>
								
									<rect x="911.5" y="834.4" transform="matrix(-1.836970e-16 1 -1 -1.836970e-16 1782.4218 -47.6655)" class="st21" width="7" height="66"/>
							</g>
						</g>
						<g>
							<polygon class="st21" points="940.6,723.9 940.6,732.2 940.6,739.2 948,739.2 948,732.2 948,723.9 							"/>
							<polygon class="st21" points="940.6,765.1 940.6,772.1 948,772.1 948,765.1 948,756.8 940.6,756.8 							"/>
							<polygon class="st21" points="940.6,798 940.6,805.1 948,805.1 948,798 948,789.7 940.6,789.7 							"/>
							<polygon class="st21" points="940.6,830.9 940.6,838 948,838 948,830.9 948,822.7 940.6,822.7 							"/>
							<polygon class="st21" points="940.6,863.9 940.6,870.9 948,870.9 948,863.9 948,855.6 940.6,855.6 							"/>
						</g>
						<g>
							<rect x="615.3" y="695.8" class="st16" width="27.9" height="198.8"/>
							<rect x="630.3" y="695.8" class="st21" width="12.8" height="198.8"/>
							<polygon class="st20" points="616.8,695.8 615.3,695.8 615.3,894.6 616.8,894.6 618.1,894.6 618.1,695.8 							"/>
							<rect x="615.3" y="695.8" class="st21" width="27.9" height="18.1"/>
						</g>
					</g>
				</g>
				<g>
					<path class="st11" d="M411.2,909.9h63.6c23.8-130.1-56.2-215.8-60.6-220.4l-0.1-0.2c0,0,0,0,0,0.1c-0.1-0.1-0.1-0.1-0.1-0.1
						l0,0.2C411.2,694.9,359.6,794.5,411.2,909.9z"/>
					<path class="st22" d="M469.4,909.9c4.8-31.1,13.7-132.3-53.5-212.8l29.2,212.8H469.4z"/>
				</g>
			</g>
			<g>
				<circle class="st23" cx="863.8" cy="246.4" r="93.2"/>
				<circle class="st24" cx="863.8" cy="246.4" r="64.8"/>
			</g>
		</g>
	</g>
</g>
</svg>
